# File produced by Open Asset Import Library (http://www.assimp.sf.net)
# (assimp v5.0.1588609223)

mtllib result.mtl

# 68 vertex positions
v -4 -5 4
v -4 -5 -3.9999998
v 4 -5 -3.9999998
v 4 -5 4
v -4 5 3.9999998
v 4 5 3.9999998
v 4 5 -4.0000005
v -4 5 -4.0000005
v -4.1935 -25.483749 -3.1451254
v -4.1935 -4.5162487 -3.145123
v 4.1935 -4.5162487 -3.145123
v 4.1935 -25.483749 -3.1451254
v -4.1935 -25.483749 3.1451242
v 4.1935 -25.483749 3.1451242
v 4.1935 -4.5162497 3.1451271
v -4.1935 -4.5162497 3.1451271
v -8 -13.598294 3.2810385
v -8 -7.9414396 -2.3758163
v -4 -7.9414396 -2.3758163
v -4 -13.598294 3.2810385
v -8 -10.769867 6.1094656
v -4 -10.769867 6.1094656
v -4 -5.1130123 0.45261034
v -8 -5.1130123 0.45261034
v -4 -13.598293 3.281038
v -4 -10.769867 0.45261058
v 4 -10.769867 0.45261058
v 4 -13.598293 3.281038
v -4 -10.769866 6.1094646
v 4 -10.769866 6.1094646
v 4 -7.9414387 3.2810378
v -4 -7.9414387 3.2810378
v 4 -13.598294 3.2810385
v 4 -7.9414396 -2.3758163
v 8 -7.9414396 -2.3758163
v 8 -13.598294 3.2810385
v 4 -10.769867 6.1094656
v 8 -10.769867 6.1094656
v 8 -5.1130123 0.45261034
v 4 -5.1130123 0.45261034
v 0 -29 2.0000007
v 0 -29 -1.9999992
v 4 -29 -1.9999992
v 4 -29 2.0000007
v 0 -17 2.0000002
v 4 -17 2.0000002
v 4 -17 -1.9999998
v 0 -17 -1.9999998
v -4 -29 2.0000007
v -4 -29 -1.9999992
v -4 -17 2.0000002
v -4 -17 -1.9999998
v -4 -17 3.0000002
v -4 -17 -2.9999998
v 4 -17 -2.9999998
v 4 -17 3.0000002
v -4 -5 2.9999998
v 4 -5 2.9999998
v 4 -5 -3.0000002
v -4 -5 -3.0000002
v -1 -6 6
v -1 -6 4
v 1 -6 4
v 1 -6 6
v -1 -1.9999998 6
v 1 -1.9999998 6
v 1 -1.9999998 4
v -1 -1.9999998 4

# 95 UV coordinates
vt 0.25 0.875 0
vt 0.25 1 0
vt 0.375 1 0
vt 0.375 0.875 0
vt 0.125 0.875 0
vt 0.125 1 0
vt 0.125 0.71902061 0
vt 0.25 0.71902061 0
vt 0.375 0.71902061 0
vt 0.5 0.71902061 0
vt 0.5 0.875 0
vt 0 0.71902061 0
vt 0 0.875 0
vt 0.4375 0 0
vt 0.4375 0.31250003 0
vt 0.3125 0.31250003 0
vt 0.3125 0 0
vt 0.093910798 0 0
vt 0.21848823 -2.9802322e-08 0
vt 0.21848823 0.3125 0
vt 0.093910806 0.31250003 0
vt 0.21848823 0.40626806 0
vt 0.3125 0.40626809 0
vt 0.093910798 0.40626809 0
vt 7.4505806e-09 0.31250003 0
vt 0 0 0
vt 0.093910791 0 0
vt 0.093910798 0.3125 0
vt 0.9375 0.46870509 0
vt 0.9375 0.59375262 0
vt 0.875 0.59375262 0
vt 0.875 0.46870509 0
vt 0.75 0.46870509 0
vt 0.8125 0.46870509 0
vt 0.8125 0.59375262 0
vt 0.75 0.59375262 0
vt 0.8125 0.65000004 0
vt 0.875 0.65000004 0
vt 0.75 0.65000004 0
vt 0.6875 0.59375262 0
vt 0.6875 0.46870509 0
vt 1 0.28137854 0
vt 1 0.34370512 0
vt 0.875 0.34370512 0
vt 0.875 0.28137854 0
vt 0.6875 0.28137854 0
vt 0.8125 0.28137854 0
vt 0.8125 0.34370512 0
vt 0.6875 0.34370512 0
vt 0.8125 0.40000001 0
vt 0.9375 0.40000001 0
vt 0.9375 0.34370512 0
vt 0.6875 0.40000001 0
vt 0.625 0.34370512 0
vt 0.625 0.28137854 0
vt 0.125 0.59368581 0
vt 0.125 0.65600944 0
vt 0.1875 0.65600944 0
vt 0.1875 0.59368581 0
vt 0.0625 0.59368581 0
vt 0.0625 0.65600944 0
vt 0.0625 0.40636507 0
vt 0.125 0.40636507 0
vt 0.1875 0.40636507 0
vt 0.25 0.40636507 0
vt 0.25 0.59368581 0
vt 0 0.40636507 0
vt 0 0.59368581 0
vt 0.46868742 0.59382629 0
vt 0.46868742 0.6875 0
vt 0.625 0.6875 0
vt 0.62490016 0.59382629 0
vt 0.34377843 0.59382629 0
vt 0.34377843 0.6875 0
vt 0.34377843 0.40622962 0
vt 0.46868742 0.40622962 0
vt 0.5625 0.40622962 0
vt 0.5625 0.59382629 0
vt 0.6875 0.40622962 0
vt 0.6875 0.59382629 0
vt 0.25 0.40622962 0
vt 0.25 0.59382629 0
vt 0.4375 0.96873581 0
vt 0.4375 1 0
vt 0.46878019 1 0
vt 0.46878019 0.96873581 0
vt 0.40625611 0.96873581 0
vt 0.40625611 1 0
vt 0.40625611 0.9064368 0
vt 0.4375 0.9064368 0
vt 0.46878019 0.9064368 0
vt 0.5 0.9064368 0
vt 0.5 0.96873581 0
vt 0.37500843 0.9064368 0
vt 0.37500843 0.96873581 0

# 18 vertex normals
vn 0 -1 4.3711388e-08
vn 0 1 -4.3711388e-08
vn 0 4.3711388e-08 1
vn 1 0 0
vn 0 -4.3711388e-08 -1
vn -1 0 -0
vn 0 1.154807e-07 -1
vn 0 -1.3822242e-07 1
vn 0.99999994 0 0
vn 0 1 1.0790014e-07
vn -0.99999994 0 -0
vn 0 -0.70710683 -0.70710671
vn 0 0.70710683 0.70710671
vn 0 -0.70710671 0.70710683
vn 0 0.70710659 -0.70710689
vn 0 -0.70710695 -0.70710671
vn 0 0.70710683 0.70710683
vn 0 0.70710671 -0.70710683

# Mesh 'Villager' with 54 faces
g Villager
usemtl 02 - Default
f 1/1/1 2/2/1 3/3/1 4/4/1
f 5/5/2 6/1/2 7/2/2 8/6/2
f 1/7/3 4/8/3 6/1/3 5/5/3
f 4/8/4 3/9/4 7/4/4 6/1/4
f 3/9/5 2/10/5 8/11/5 7/4/5
f 2/12/6 1/7/6 5/5/6 8/13/6
f 9/14/7 10/15/7 11/16/7 12/17/7
f 13/18/8 14/19/8 15/20/8 16/21/8
f 9/22/1 12/23/1 14/16/1 13/20/1
f 12/17/4 11/16/4 15/20/4 14/19/9
f 11/22/10 10/24/10 16/21/10 15/20/10
f 10/25/6 9/26/6 13/27/11 16/28/6
f 17/29/12 18/30/12 19/31/12 20/32/12
f 21/33/13 22/34/13 23/35/13 24/36/13
f 17/37/14 20/38/14 22/31/14 21/35/14
f 20/32/4 19/31/9 23/35/4 22/34/4
f 19/37/15 18/39/15 24/36/15 23/35/15
f 18/40/11 17/41/6 21/33/6 24/36/6
f 25/42/16 26/43/16 27/44/16 28/45/16
f 29/46/17 30/47/17 31/48/17 32/49/17
f 25/50/14 28/51/14 30/52/14 29/48/14
f 28/45/4 27/44/4 31/48/4 30/47/4
f 27/50/18 26/53/18 32/49/18 31/48/18
f 26/54/6 25/55/6 29/46/6 32/49/6
f 33/29/12 34/30/12 35/31/12 36/32/12
f 37/33/13 38/34/13 39/35/13 40/36/13
f 33/37/14 36/38/14 38/31/14 37/35/14
f 36/32/4 35/31/9 39/35/4 38/34/4
f 35/37/15 34/39/15 40/36/15 39/35/15
f 34/40/11 33/41/6 37/33/6 40/36/6
f 41/56/1 42/57/1 43/58/1 44/59/1
f 45/60/2 46/56/2 47/57/2 48/61/2
f 41/62/3 44/63/3 46/56/3 45/60/3
f 44/63/4 43/64/4 47/59/4 46/56/4
f 43/64/5 42/65/5 48/66/5 47/59/5
f 42/67/6 41/62/6 45/60/6 48/68/6
f 49/56/1 50/57/1 42/58/1 41/59/1
f 51/60/2 45/56/2 48/57/2 52/61/2
f 49/62/3 41/63/3 45/56/3 51/60/3
f 41/63/4 42/64/4 48/59/4 45/56/4
f 42/64/5 50/65/5 52/66/5 48/59/5
f 50/67/6 49/62/6 51/60/6 52/68/6
f 53/69/1 54/70/1 55/71/1 56/72/1
f 57/73/2 58/69/2 59/70/2 60/74/2
f 53/75/3 56/76/3 58/69/3 57/73/3
f 56/76/4 55/77/4 59/78/4 58/69/4
f 55/77/5 54/79/5 60/80/5 59/78/5
f 54/81/6 53/75/6 57/73/6 60/82/6
f 61/83/1 62/84/1 63/85/1 64/86/1
f 65/87/2 66/83/2 67/84/2 68/88/2
f 61/89/3 64/90/3 66/83/3 65/87/3
f 64/90/4 63/91/4 67/86/4 66/83/4
f 63/91/5 62/92/5 68/93/5 67/86/5
f 62/94/6 61/89/6 65/87/6 68/95/6